<svg width="20" height="20" viewBox="0 0 20 20" fill="none" xmlns="http://www.w3.org/2000/svg">
<g clip-path="url(#clip0)">
<path d="M19.8942 14.5988C19.8687 14.5478 19.8468 14.504 19.8249 14.4675C19.4785 13.8439 18.8147 13.0744 17.8373 12.1663L17.8155 12.1444L17.8045 12.1335L17.7936 12.1225H17.7826C17.3377 11.6995 17.0569 11.415 16.9402 11.2691C16.725 10.992 16.6776 10.7112 16.7943 10.4267C16.8782 10.2115 17.1918 9.75565 17.7316 9.06273C18.016 8.69438 18.2422 8.39898 18.4099 8.17651C19.6098 6.57914 20.1313 5.55798 19.9708 5.1167L19.9088 5.01458C19.8687 4.95259 19.7593 4.89423 19.5879 4.84318C19.4128 4.79212 19.1904 4.78118 18.9205 4.81765L15.9227 4.83953C15.8753 4.8213 15.806 4.82494 15.7148 4.84318C15.6236 4.86506 15.5799 4.876 15.5799 4.876L15.5288 4.90153L15.4887 4.93435C15.4522 4.95623 15.4158 4.9927 15.3756 5.04376C15.3355 5.09482 15.299 5.15682 15.2735 5.22611C14.9453 6.06491 14.5769 6.84537 14.1575 7.56747C13.9023 7.99781 13.6652 8.3698 13.45 8.68709C13.2349 9.00437 13.0562 9.23413 12.9103 9.38366C12.7644 9.53318 12.6331 9.65354 12.5128 9.74106C12.3961 9.83224 12.3049 9.86871 12.2429 9.85412C12.1809 9.83953 12.1225 9.82494 12.0642 9.814C11.9657 9.752 11.8891 9.66812 11.8308 9.55871C11.7724 9.45295 11.7323 9.31437 11.7104 9.1539C11.6885 8.98979 11.6776 8.8512 11.674 8.73085C11.6703 8.61415 11.674 8.44639 11.6776 8.23122C11.6849 8.01604 11.6885 7.87016 11.6885 7.79358C11.6885 7.531 11.6922 7.24289 11.7031 6.93289C11.7141 6.6229 11.7214 6.37855 11.7287 6.19985C11.736 6.02115 11.7396 5.82786 11.7396 5.62728C11.7396 5.42669 11.7287 5.26987 11.7031 5.15317C11.6776 5.04011 11.6411 4.92706 11.5937 4.8213C11.5463 4.71553 11.4734 4.63165 11.3786 4.56965C11.2837 4.5113 11.167 4.46389 11.0284 4.42742C10.6601 4.34354 10.1933 4.29978 9.62436 4.29248C8.33333 4.2779 7.50547 4.36178 7.13713 4.54413C6.99125 4.62071 6.85995 4.72283 6.74325 4.85776C6.61925 5.01094 6.60102 5.09482 6.69219 5.10941C7.10795 5.1714 7.40335 5.32093 7.57841 5.55798L7.64041 5.68198C7.68782 5.77316 7.73888 5.93362 7.78629 6.15973C7.8337 6.38949 7.86652 6.64113 7.88111 6.9183C7.91758 7.42523 7.91758 7.85922 7.88111 8.22027C7.84464 8.58132 7.81181 8.86214 7.78264 9.06273C7.74982 9.26331 7.70605 9.42742 7.64041 9.55142C7.57841 9.67542 7.53465 9.752 7.51641 9.78118C7.49453 9.81036 7.47994 9.82494 7.46535 9.83224C7.37418 9.86506 7.283 9.88329 7.18454 9.88329C7.08607 9.88329 6.96936 9.83588 6.83078 9.73742C6.69219 9.63895 6.54632 9.50766 6.40044 9.33625C6.25091 9.16484 6.08315 8.92779 5.89715 8.62144C5.71116 8.3151 5.51422 7.95405 5.31364 7.53829L5.14588 7.23559C5.04012 7.0423 4.89788 6.75784 4.71918 6.38585C4.53683 6.01386 4.38001 5.65645 4.24143 5.30634C4.18672 5.16046 4.10284 5.05105 3.98979 4.97447L3.93873 4.94165C3.90591 4.91247 3.84756 4.88329 3.77097 4.85412C3.69438 4.8213 3.61415 4.79941 3.53027 4.78483L0.678337 4.80671C0.386579 4.80671 0.189643 4.87235 0.0838804 5.00364L0.0437637 5.06564C0.0109409 5.10941 0 5.16776 0 5.24434C0 5.32093 0.0218818 5.41575 0.0619985 5.52516C0.477753 6.50255 0.929978 7.44712 1.42232 8.35886C1.91101 9.26696 2.33771 10 2.69876 10.5543C3.05981 11.1087 3.42815 11.6338 3.80379 12.1262C4.17943 12.6185 4.42742 12.9358 4.54777 13.0744C4.66812 13.213 4.76659 13.3187 4.83589 13.388L5.09482 13.6397C5.26258 13.8074 5.50693 14.0044 5.82786 14.2378C6.15244 14.4712 6.50985 14.7009 6.90007 14.9271C7.29394 15.1532 7.74982 15.3355 8.26769 15.4778C8.7892 15.62 9.29613 15.6783 9.78847 15.6492H10.9847C11.229 15.6273 11.4114 15.5507 11.5354 15.4194L11.5755 15.3683C11.6047 15.3282 11.6302 15.2626 11.6521 15.1751C11.6776 15.0875 11.6885 14.9927 11.6885 14.8869C11.6813 14.5879 11.7031 14.318 11.7578 14.081C11.8089 13.8403 11.8672 13.6616 11.9365 13.5412C12.0022 13.4209 12.0788 13.3187 12.159 13.2349C12.2429 13.151 12.3012 13.0999 12.3377 13.0853C12.3705 13.0671 12.3997 13.0562 12.4216 13.0489C12.5893 12.9942 12.7826 13.0489 13.0088 13.2093C13.2349 13.3734 13.4464 13.574 13.6433 13.8147C13.8403 14.0554 14.0773 14.3217 14.3581 14.6207C14.6353 14.9198 14.8796 15.1422 15.0875 15.2881L15.2954 15.4121C15.434 15.496 15.6163 15.5726 15.8388 15.6419C16.0613 15.7112 16.2546 15.7294 16.4223 15.6929L19.0883 15.6528C19.3508 15.6528 19.5587 15.609 19.7009 15.5215C19.8468 15.434 19.9344 15.3392 19.9599 15.2334C19.9891 15.1276 19.9891 15.0109 19.9635 14.8796C19.9416 14.7447 19.9161 14.6499 19.8942 14.5988Z" fill="white"/>
</g>
<defs>
<clipPath id="clip0">
<rect width="20" height="20" fill="white"/>
</clipPath>
</defs>
</svg>
